<svg xmlns="http://www.w3.org/2000/svg" xmlns:xlink="http://www.w3.org/1999/xlink" width="200" zoomAndPan="magnify" viewBox="0 0 150 37.5" height="50" preserveAspectRatio="xMidYMid meet" version="1.0"><defs><clipPath id="88cf9ab717"><path d="M 5.082031 5.167969 L 78.714844 5.167969 L 78.714844 18.449219 L 5.082031 18.449219 Z M 5.082031 5.167969 " clip-rule="nonzero"/></clipPath><clipPath id="78f2dcf0c7"><path d="M 4.640625 19.8125 L 23 19.8125 L 23 29.726562 L 4.640625 29.726562 Z M 4.640625 19.8125 " clip-rule="nonzero"/></clipPath></defs><g clip-path="url(#88cf9ab717)"><path fill="#e94b27" d="M 8.648438 21.300781 C 8.648438 21.300781 8.136719 18.820312 10.765625 17.074219 C 13.980469 14.9375 18.722656 14.824219 23.273438 14.253906 C 25.949219 13.886719 28.59375 13.355469 31.203125 12.667969 L 26.976562 12.84375 C 29.472656 11.277344 32.101562 9.976562 34.859375 8.9375 C 37.621094 7.898438 40.453125 7.144531 43.363281 6.675781 C 52.804688 5.257812 64.570312 7.21875 68.726562 10.144531 L 65.230469 10.992188 C 65.230469 10.992188 75.574219 12.859375 77.324219 12.789062 C 79.074219 12.71875 75.460938 13.582031 78.269531 16.191406 C 79.625 17.449219 79.6875 18.460938 79.6875 18.460938 L 78.648438 15.058594 L 79.121094 14.019531 L 78.835938 13.453125 L 79.308594 12.128906 C 79.308594 12.128906 77.851562 12.359375 74.867188 11.371094 C 71.882812 10.382812 65.605469 7.148438 62.109375 6.457031 C 58.613281 5.765625 46.046875 3.519531 35.933594 7.402344 C 25.816406 11.285156 26.679688 12.535156 25.160156 12.691406 C 4.234375 14.859375 5.125 19.214844 5.125 19.214844 Z M 8.648438 21.300781 " fill-opacity="1" fill-rule="evenodd"/></g><g clip-path="url(#78f2dcf0c7)"><path fill="#ffffff" d="M 17.546875 26.363281 L 19.878906 19.902344 L 22.957031 19.902344 L 19.367188 29.671875 L 16.222656 29.671875 L 13.855469 24.320312 L 11.472656 29.671875 L 8.328125 29.671875 L 4.742188 19.902344 L 7.820312 19.902344 L 10.148438 26.363281 L 13.011719 19.902344 L 14.6875 19.902344 Z M 17.546875 26.363281 " fill-opacity="1" fill-rule="nonzero"/></g><path fill="#ffffff" d="M 32.171875 23.515625 L 32.171875 19.902344 L 35.101562 19.902344 L 35.101562 29.671875 L 32.171875 29.671875 L 32.171875 26.058594 L 26.214844 26.058594 L 26.214844 29.671875 L 23.285156 29.671875 L 23.285156 19.902344 L 26.214844 19.902344 L 26.214844 23.515625 Z M 32.171875 23.515625 " fill-opacity="1" fill-rule="nonzero"/><path fill="#ffffff" d="M 46.664062 29.671875 L 36.476562 29.671875 L 36.476562 19.902344 L 46.382812 19.902344 L 46.382812 22.351562 L 39.355469 22.351562 L 39.355469 23.660156 L 45.726562 23.660156 L 45.726562 25.816406 L 39.355469 25.816406 L 39.355469 27.195312 L 46.664062 27.195312 Z M 46.664062 29.671875 " fill-opacity="1" fill-rule="nonzero"/><path fill="#ffffff" d="M 57.742188 29.671875 L 47.554688 29.671875 L 47.554688 19.902344 L 57.460938 19.902344 L 57.460938 22.351562 L 50.433594 22.351562 L 50.433594 23.660156 L 56.804688 23.660156 L 56.804688 25.816406 L 50.433594 25.816406 L 50.433594 27.195312 L 57.742188 27.195312 Z M 57.742188 29.671875 " fill-opacity="1" fill-rule="nonzero"/><path fill="#ffffff" d="M 67.667969 29.671875 L 58.632812 29.671875 L 58.632812 19.902344 L 61.5625 19.902344 L 61.5625 27.078125 L 67.667969 27.078125 Z M 67.667969 29.671875 " fill-opacity="1" fill-rule="nonzero"/><path fill="#ffffff" d="M 67.636719 26.296875 L 70.785156 26.296875 C 70.820312 26.460938 70.882812 26.609375 70.980469 26.75 C 71.078125 26.886719 71.238281 27.007812 71.457031 27.121094 C 71.675781 27.234375 71.984375 27.320312 72.382812 27.382812 C 72.777344 27.445312 73.289062 27.476562 73.914062 27.476562 C 74.574219 27.476562 75.097656 27.457031 75.492188 27.410156 C 75.886719 27.367188 76.183594 27.3125 76.390625 27.246094 C 76.59375 27.175781 76.730469 27.101562 76.796875 27.015625 C 76.867188 26.929688 76.898438 26.847656 76.898438 26.765625 C 76.898438 26.6875 76.871094 26.609375 76.8125 26.535156 C 76.753906 26.457031 76.617188 26.378906 76.410156 26.296875 C 76.199219 26.21875 75.878906 26.140625 75.445312 26.066406 C 75.011719 25.988281 74.421875 25.914062 73.675781 25.84375 C 72.488281 25.730469 71.515625 25.578125 70.761719 25.390625 C 70.007812 25.203125 69.425781 24.980469 69.015625 24.722656 C 68.605469 24.460938 68.320312 24.164062 68.164062 23.828125 C 68.011719 23.496094 67.933594 23.125 67.933594 22.722656 C 67.933594 22.332031 68.03125 21.957031 68.230469 21.59375 C 68.433594 21.234375 68.753906 20.90625 69.195312 20.617188 C 69.636719 20.328125 70.21875 20.101562 70.941406 19.9375 C 71.664062 19.769531 72.550781 19.6875 73.59375 19.6875 C 74.65625 19.6875 75.554688 19.78125 76.292969 19.96875 C 77.035156 20.15625 77.636719 20.414062 78.097656 20.738281 C 78.554688 21.066406 78.902344 21.441406 79.132812 21.867188 C 79.363281 22.289062 79.507812 22.742188 79.5625 23.222656 L 76.429688 23.222656 C 76.386719 23.023438 76.285156 22.839844 76.121094 22.671875 C 75.960938 22.503906 75.683594 22.367188 75.289062 22.261719 C 74.890625 22.152344 74.3125 22.097656 73.550781 22.097656 C 72.8125 22.097656 72.253906 22.132812 71.871094 22.199219 C 71.492188 22.265625 71.238281 22.351562 71.113281 22.460938 C 70.980469 22.566406 70.917969 22.671875 70.917969 22.777344 C 70.917969 22.867188 70.949219 22.957031 71.007812 23.042969 C 71.074219 23.125 71.207031 23.207031 71.417969 23.28125 C 71.628906 23.355469 71.953125 23.433594 72.390625 23.507812 C 72.828125 23.585938 73.421875 23.664062 74.183594 23.742188 C 75.359375 23.875 76.324219 24.039062 77.074219 24.230469 C 77.820312 24.425781 78.402344 24.648438 78.8125 24.90625 C 79.222656 25.167969 79.503906 25.457031 79.660156 25.785156 C 79.816406 26.109375 79.894531 26.472656 79.894531 26.875 C 79.894531 27.257812 79.792969 27.628906 79.585938 27.992188 C 79.382812 28.351562 79.050781 28.675781 78.589844 28.964844 C 78.132812 29.246094 77.519531 29.472656 76.75 29.640625 C 75.984375 29.804688 75.035156 29.886719 73.898438 29.886719 C 72.769531 29.886719 71.8125 29.792969 71.03125 29.609375 C 70.25 29.429688 69.617188 29.171875 69.136719 28.84375 C 68.65625 28.511719 68.296875 28.132812 68.058594 27.699219 C 67.820312 27.265625 67.679688 26.796875 67.636719 26.296875 Z M 67.636719 26.296875 " fill-opacity="1" fill-rule="nonzero"/><path fill="#ffffff" d="M 94.746094 23.515625 L 94.746094 19.902344 L 97.675781 19.902344 L 97.675781 29.671875 L 94.746094 29.671875 L 94.746094 26.058594 L 88.789062 26.058594 L 88.789062 29.671875 L 85.859375 29.671875 L 85.859375 19.902344 L 88.789062 19.902344 L 88.789062 23.515625 Z M 94.746094 23.515625 " fill-opacity="1" fill-rule="nonzero"/><path fill="#ffffff" d="M 105.019531 29.886719 C 103.582031 29.886719 102.382812 29.671875 101.417969 29.238281 C 100.457031 28.804688 99.738281 28.222656 99.261719 27.492188 C 98.785156 26.757812 98.546875 25.949219 98.546875 25.054688 L 98.546875 24.519531 C 98.546875 23.628906 98.785156 22.816406 99.261719 22.082031 C 99.738281 21.351562 100.457031 20.769531 101.417969 20.335938 C 102.382812 19.902344 103.582031 19.6875 105.019531 19.6875 C 106.476562 19.6875 107.683594 19.902344 108.640625 20.335938 C 109.597656 20.769531 110.320312 21.351562 110.800781 22.082031 C 111.285156 22.816406 111.527344 23.628906 111.527344 24.519531 L 111.527344 25.054688 C 111.527344 25.949219 111.285156 26.757812 110.800781 27.492188 C 110.320312 28.222656 109.597656 28.804688 108.640625 29.238281 C 107.683594 29.671875 106.476562 29.886719 105.019531 29.886719 Z M 105.035156 27.34375 C 105.847656 27.34375 106.507812 27.234375 107.019531 27.015625 C 107.535156 26.796875 107.914062 26.507812 108.164062 26.148438 C 108.414062 25.792969 108.542969 25.402344 108.542969 24.972656 L 108.542969 24.597656 C 108.542969 24.171875 108.414062 23.777344 108.164062 23.414062 C 107.914062 23.054688 107.535156 22.765625 107.019531 22.550781 C 106.507812 22.339844 105.847656 22.230469 105.035156 22.230469 C 104.230469 22.230469 103.570312 22.339844 103.050781 22.550781 C 102.535156 22.765625 102.152344 23.054688 101.902344 23.414062 C 101.652344 23.777344 101.527344 24.171875 101.527344 24.597656 L 101.527344 24.972656 C 101.527344 25.402344 101.652344 25.792969 101.902344 26.148438 C 102.152344 26.507812 102.535156 26.796875 103.050781 27.015625 C 103.570312 27.234375 104.230469 27.34375 105.035156 27.34375 Z M 105.035156 27.34375 " fill-opacity="1" fill-rule="nonzero"/><path fill="#ffffff" d="M 112.257812 25.363281 L 112.257812 19.902344 L 115.1875 19.902344 L 115.1875 24.988281 C 115.1875 25.726562 115.410156 26.296875 115.855469 26.699219 C 116.304688 27.101562 117.027344 27.300781 118.023438 27.300781 C 119.023438 27.300781 119.753906 27.105469 120.207031 26.714844 C 120.664062 26.320312 120.890625 25.746094 120.890625 24.988281 L 120.890625 19.902344 L 123.820312 19.902344 L 123.820312 25.363281 C 123.820312 26.246094 123.609375 27.027344 123.191406 27.710938 C 122.773438 28.394531 122.132812 28.925781 121.277344 29.3125 C 120.421875 29.695312 119.335938 29.886719 118.023438 29.886719 C 116.722656 29.886719 115.644531 29.695312 114.792969 29.3125 C 113.941406 28.925781 113.304688 28.394531 112.882812 27.710938 C 112.464844 27.027344 112.257812 26.246094 112.257812 25.363281 Z M 112.257812 25.363281 " fill-opacity="1" fill-rule="nonzero"/><path fill="#ffffff" d="M 124.433594 26.296875 L 127.578125 26.296875 C 127.613281 26.460938 127.679688 26.609375 127.777344 26.75 C 127.875 26.886719 128.035156 27.007812 128.25 27.121094 C 128.472656 27.234375 128.78125 27.320312 129.179688 27.382812 C 129.574219 27.445312 130.085938 27.476562 130.710938 27.476562 C 131.367188 27.476562 131.894531 27.457031 132.285156 27.410156 C 132.679688 27.367188 132.980469 27.3125 133.183594 27.246094 C 133.390625 27.175781 133.527344 27.101562 133.59375 27.015625 C 133.660156 26.929688 133.695312 26.847656 133.695312 26.765625 C 133.695312 26.6875 133.664062 26.609375 133.605469 26.535156 C 133.546875 26.457031 133.414062 26.378906 133.207031 26.296875 C 132.996094 26.21875 132.675781 26.140625 132.242188 26.066406 C 131.808594 25.988281 131.21875 25.914062 130.46875 25.84375 C 129.28125 25.730469 128.3125 25.578125 127.558594 25.390625 C 126.804688 25.203125 126.222656 24.980469 125.8125 24.722656 C 125.402344 24.460938 125.117188 24.164062 124.960938 23.828125 C 124.804688 23.496094 124.726562 23.125 124.726562 22.722656 C 124.726562 22.332031 124.828125 21.957031 125.027344 21.59375 C 125.226562 21.234375 125.550781 20.90625 125.992188 20.617188 C 126.433594 20.328125 127.015625 20.101562 127.738281 19.9375 C 128.460938 19.769531 129.34375 19.6875 130.390625 19.6875 C 131.449219 19.6875 132.351562 19.78125 133.089844 19.96875 C 133.832031 20.15625 134.433594 20.414062 134.890625 20.738281 C 135.351562 21.066406 135.695312 21.441406 135.925781 21.867188 C 136.160156 22.289062 136.300781 22.742188 136.355469 23.222656 L 133.226562 23.222656 C 133.183594 23.023438 133.078125 22.839844 132.917969 22.671875 C 132.757812 22.503906 132.480469 22.367188 132.082031 22.261719 C 131.683594 22.152344 131.105469 22.097656 130.347656 22.097656 C 129.605469 22.097656 129.046875 22.132812 128.667969 22.199219 C 128.289062 22.265625 128.035156 22.351562 127.90625 22.460938 C 127.777344 22.566406 127.714844 22.671875 127.714844 22.777344 C 127.714844 22.867188 127.742188 22.957031 127.804688 23.042969 C 127.867188 23.125 128.003906 23.207031 128.214844 23.28125 C 128.425781 23.355469 128.75 23.433594 129.183594 23.507812 C 129.621094 23.585938 130.21875 23.664062 130.976562 23.742188 C 132.15625 23.875 133.117188 24.039062 133.867188 24.230469 C 134.617188 24.425781 135.195312 24.648438 135.605469 24.90625 C 136.015625 25.167969 136.300781 25.457031 136.457031 25.785156 C 136.613281 26.109375 136.691406 26.472656 136.691406 26.875 C 136.691406 27.257812 136.585938 27.628906 136.382812 27.992188 C 136.175781 28.351562 135.84375 28.675781 135.386719 28.964844 C 134.925781 29.246094 134.316406 29.472656 133.546875 29.640625 C 132.78125 29.804688 131.828125 29.886719 130.695312 29.886719 C 129.5625 29.886719 128.609375 29.792969 127.824219 29.609375 C 127.042969 29.429688 126.414062 29.171875 125.933594 28.84375 C 125.449219 28.511719 125.089844 28.132812 124.855469 27.699219 C 124.617188 27.265625 124.476562 26.796875 124.433594 26.296875 Z M 124.433594 26.296875 " fill-opacity="1" fill-rule="nonzero"/><path fill="#ffffff" d="M 147.71875 29.671875 L 137.53125 29.671875 L 137.53125 19.902344 L 147.433594 19.902344 L 147.433594 22.351562 L 140.40625 22.351562 L 140.40625 23.660156 L 146.78125 23.660156 L 146.78125 25.816406 L 140.40625 25.816406 L 140.40625 27.195312 L 147.71875 27.195312 Z M 147.71875 29.671875 " fill-opacity="1" fill-rule="nonzero"/></svg>